<mxfile host="app.diagrams.net" modified="2021-06-04T09:46:04.005Z" agent="5.0 (Macintosh; Intel Mac OS X 10_15_7) AppleWebKit/537.36 (KHTML, like Gecko) Chrome/91.0.4472.77 Safari/537.36" etag="IQ4-1KDROKUyOgZsyS47" version="14.7.5" type="github">
  <diagram id="bKikSzmRIYnhMW0a-3qn" name="第 1 页">
    <mxGraphModel dx="2224" dy="1500" grid="0" gridSize="10" guides="1" tooltips="1" connect="1" arrows="1" fold="1" page="1" pageScale="1" pageWidth="2336" pageHeight="1654" background="#FFFFFF" math="0" shadow="0">
      <root>
        <mxCell id="0" />
        <mxCell id="1" parent="0" />
        <mxCell id="OzgvakwpHb-Y98bhcLFI-54" value="" style="rounded=0;whiteSpace=wrap;html=1;shadow=1;sketch=1;fontSize=15;strokeWidth=0.5;fillColor=none;dashed=1;dashPattern=1 2;glass=0;" vertex="1" parent="1">
          <mxGeometry x="435" y="160" width="825" height="909" as="geometry" />
        </mxCell>
        <mxCell id="OzgvakwpHb-Y98bhcLFI-62" value="" style="rounded=0;whiteSpace=wrap;html=1;shadow=1;sketch=1;fillColor=none;fontSize=14;dashed=1;perimeterSpacing=0;strokeColor=#33001A;strokeWidth=0.5;dashPattern=1 4;" vertex="1" parent="1">
          <mxGeometry x="517.5" y="474" width="615.5" height="457" as="geometry" />
        </mxCell>
        <mxCell id="OzgvakwpHb-Y98bhcLFI-69" value="" style="outlineConnect=0;strokeColor=#56517e;fillColor=#d0cee2;dashed=0;verticalLabelPosition=bottom;verticalAlign=top;align=center;html=1;fontSize=12;fontStyle=0;aspect=fixed;shape=mxgraph.aws4.resourceIcon;resIcon=mxgraph.aws4.instances_2;shadow=0;sketch=1;" vertex="1" parent="1">
          <mxGeometry x="961" y="813" width="80" height="80" as="geometry" />
        </mxCell>
        <mxCell id="OzgvakwpHb-Y98bhcLFI-58" style="edgeStyle=orthogonalEdgeStyle;rounded=0;sketch=1;orthogonalLoop=1;jettySize=auto;html=1;exitX=0.75;exitY=0;exitDx=0;exitDy=0;entryX=0.5;entryY=1;entryDx=0;entryDy=0;shadow=1;fontSize=15;" edge="1" parent="1" source="OzgvakwpHb-Y98bhcLFI-39" target="OzgvakwpHb-Y98bhcLFI-76">
          <mxGeometry relative="1" as="geometry">
            <mxPoint x="1056.191612903226" y="284.56488630354306" as="targetPoint" />
          </mxGeometry>
        </mxCell>
        <mxCell id="OzgvakwpHb-Y98bhcLFI-74" style="edgeStyle=orthogonalEdgeStyle;rounded=0;sketch=1;orthogonalLoop=1;jettySize=auto;html=1;exitX=0.25;exitY=1;exitDx=0;exitDy=0;entryX=0.5;entryY=0;entryDx=0;entryDy=0;entryPerimeter=0;shadow=1;fontSize=15;strokeWidth=1;" edge="1" parent="1" source="OzgvakwpHb-Y98bhcLFI-39" target="OzgvakwpHb-Y98bhcLFI-72">
          <mxGeometry relative="1" as="geometry" />
        </mxCell>
        <mxCell id="OzgvakwpHb-Y98bhcLFI-75" style="edgeStyle=orthogonalEdgeStyle;rounded=0;sketch=1;orthogonalLoop=1;jettySize=auto;html=1;exitX=0.75;exitY=1;exitDx=0;exitDy=0;shadow=1;fontSize=15;strokeWidth=1;" edge="1" parent="1" source="OzgvakwpHb-Y98bhcLFI-39" target="OzgvakwpHb-Y98bhcLFI-69">
          <mxGeometry relative="1" as="geometry" />
        </mxCell>
        <mxCell id="OzgvakwpHb-Y98bhcLFI-39" value="" style="rounded=0;whiteSpace=wrap;html=1;shadow=1;sketch=1;fillColor=none;fontSize=14;dashed=1;perimeterSpacing=0;strokeColor=#33001A;strokeWidth=0.5;dashPattern=1 4;" vertex="1" parent="1">
          <mxGeometry x="552" y="490" width="548" height="290" as="geometry" />
        </mxCell>
        <mxCell id="OzgvakwpHb-Y98bhcLFI-43" value="" style="whiteSpace=wrap;html=1;aspect=fixed;rounded=1;shadow=0;glass=0;labelBackgroundColor=none;fillColor=#dae8fc;sketch=1;fontSize=14;strokeWidth=1;strokeColor=#6c8ebf;" vertex="1" parent="1">
          <mxGeometry x="861.1632258064516" y="642.2579234972678" width="87.74193548387096" height="87.74193548387096" as="geometry" />
        </mxCell>
        <mxCell id="fr_o3y-mR50qFRv6tMRz-52" value="人群？运营？" style="whiteSpace=wrap;html=1;aspect=fixed;rounded=1;shadow=0;glass=0;labelBackgroundColor=none;fillColor=#dae8fc;sketch=1;fontSize=14;strokeWidth=1;strokeColor=#6c8ebf;" parent="1" vertex="1">
          <mxGeometry x="853.4858064516129" y="629.4907103825137" width="87.74193548387096" height="87.74193548387096" as="geometry" />
        </mxCell>
        <mxCell id="OzgvakwpHb-Y98bhcLFI-42" value="" style="whiteSpace=wrap;html=1;aspect=fixed;rounded=1;shadow=0;glass=0;labelBackgroundColor=none;fillColor=#dae8fc;sketch=1;fontSize=14;strokeWidth=1;strokeColor=#6c8ebf;" vertex="1" parent="1">
          <mxGeometry x="729.5503225806451" y="642.2579234972678" width="87.74193548387096" height="87.74193548387096" as="geometry" />
        </mxCell>
        <mxCell id="OzgvakwpHb-Y98bhcLFI-33" value="" style="whiteSpace=wrap;html=1;aspect=fixed;rounded=1;shadow=0;glass=0;labelBackgroundColor=none;fillColor=#dae8fc;sketch=1;fontSize=14;strokeWidth=1;strokeColor=#6c8ebf;" vertex="1" parent="1">
          <mxGeometry x="586.9696774193549" y="523.5729508196721" width="87.74193548387096" height="87.74193548387096" as="geometry" />
        </mxCell>
        <mxCell id="OzgvakwpHb-Y98bhcLFI-36" value="" style="whiteSpace=wrap;html=1;aspect=fixed;rounded=1;shadow=0;glass=0;labelBackgroundColor=none;fillColor=#dae8fc;sketch=1;fontSize=14;strokeWidth=1;strokeColor=#6c8ebf;" vertex="1" parent="1">
          <mxGeometry x="861.1632258064516" y="523.5729508196721" width="87.74193548387096" height="87.74193548387096" as="geometry" />
        </mxCell>
        <mxCell id="OzgvakwpHb-Y98bhcLFI-35" value="" style="whiteSpace=wrap;html=1;aspect=fixed;rounded=1;shadow=0;glass=0;labelBackgroundColor=none;fillColor=#dae8fc;sketch=1;fontSize=14;strokeWidth=1;strokeColor=#6c8ebf;" vertex="1" parent="1">
          <mxGeometry x="729.5503225806451" y="523.5729508196721" width="87.74193548387096" height="87.74193548387096" as="geometry" />
        </mxCell>
        <mxCell id="OzgvakwpHb-Y98bhcLFI-37" value="" style="whiteSpace=wrap;html=1;aspect=fixed;rounded=1;shadow=0;glass=0;labelBackgroundColor=none;fillColor=#dae8fc;sketch=1;fontSize=14;strokeWidth=1;strokeColor=#6c8ebf;" vertex="1" parent="1">
          <mxGeometry x="992.776129032258" y="523.5729508196721" width="87.74193548387096" height="87.74193548387096" as="geometry" />
        </mxCell>
        <mxCell id="fr_o3y-mR50qFRv6tMRz-47" value="Flink服务" style="whiteSpace=wrap;html=1;aspect=fixed;rounded=1;shadow=0;glass=0;labelBackgroundColor=none;strokeColor=#6c8ebf;fillColor=#dae8fc;sketch=1;" parent="1" vertex="1">
          <mxGeometry x="1230" y="30" width="80" height="80" as="geometry" />
        </mxCell>
        <mxCell id="fr_o3y-mR50qFRv6tMRz-45" value="报表服务" style="whiteSpace=wrap;html=1;aspect=fixed;rounded=1;shadow=0;glass=0;labelBackgroundColor=none;fillColor=#dae8fc;sketch=1;fontSize=14;strokeWidth=1;strokeColor=#6c8ebf;" parent="1" vertex="1">
          <mxGeometry x="576.001935483871" y="509.7478142076503" width="87.74193548387096" height="87.74193548387096" as="geometry" />
        </mxCell>
        <mxCell id="fr_o3y-mR50qFRv6tMRz-50" value="看板" style="whiteSpace=wrap;html=1;aspect=fixed;rounded=1;shadow=0;glass=0;labelBackgroundColor=none;fillColor=#dae8fc;sketch=1;fontSize=14;strokeWidth=1;strokeColor=#6c8ebf;" parent="1" vertex="1">
          <mxGeometry x="853.4858064516129" y="509.7478142076503" width="87.74193548387096" height="87.74193548387096" as="geometry" />
        </mxCell>
        <mxCell id="fr_o3y-mR50qFRv6tMRz-51" value="埋点" style="whiteSpace=wrap;html=1;aspect=fixed;rounded=1;shadow=0;glass=0;labelBackgroundColor=none;fillColor=#dae8fc;sketch=1;fontSize=14;strokeWidth=1;strokeColor=#6c8ebf;" parent="1" vertex="1">
          <mxGeometry x="718.5825806451612" y="509.7478142076503" width="87.74193548387096" height="87.74193548387096" as="geometry" />
        </mxCell>
        <mxCell id="fr_o3y-mR50qFRv6tMRz-53" value="权限" style="whiteSpace=wrap;html=1;aspect=fixed;rounded=1;shadow=0;glass=0;labelBackgroundColor=none;fillColor=#dae8fc;sketch=1;fontSize=14;strokeWidth=1;strokeColor=#6c8ebf;" parent="1" vertex="1">
          <mxGeometry x="981.8083870967741" y="509.7478142076503" width="87.74193548387096" height="87.74193548387096" as="geometry" />
        </mxCell>
        <mxCell id="OzgvakwpHb-Y98bhcLFI-41" value="" style="whiteSpace=wrap;html=1;aspect=fixed;rounded=1;shadow=0;glass=0;labelBackgroundColor=none;fillColor=#dae8fc;sketch=1;fontSize=14;strokeWidth=1;strokeColor=#6c8ebf;" vertex="1" parent="1">
          <mxGeometry x="586.9696774193549" y="642.2579234972678" width="87.74193548387096" height="87.74193548387096" as="geometry" />
        </mxCell>
        <mxCell id="fr_o3y-mR50qFRv6tMRz-46" value="开放平台" style="whiteSpace=wrap;html=1;aspect=fixed;rounded=1;shadow=0;glass=0;labelBackgroundColor=none;fillColor=#dae8fc;sketch=1;fontSize=14;strokeWidth=1;strokeColor=#6c8ebf;" parent="1" vertex="1">
          <mxGeometry x="576.001935483871" y="629.4907103825137" width="87.74193548387096" height="87.74193548387096" as="geometry" />
        </mxCell>
        <mxCell id="fr_o3y-mR50qFRv6tMRz-49" value="直播实时" style="whiteSpace=wrap;html=1;aspect=fixed;rounded=1;shadow=0;glass=0;labelBackgroundColor=none;fillColor=#dae8fc;sketch=1;fontSize=14;strokeWidth=1;strokeColor=#6c8ebf;" parent="1" vertex="1">
          <mxGeometry x="718.5825806451612" y="629.4907103825137" width="87.74193548387096" height="87.74193548387096" as="geometry" />
        </mxCell>
        <mxCell id="OzgvakwpHb-Y98bhcLFI-29" value="" style="rounded=0;whiteSpace=wrap;html=1;sketch=1;fillColor=none;shadow=1;strokeWidth=0.5;strokeColor=#330033;dashed=1;dashPattern=1 2;" vertex="1" parent="1">
          <mxGeometry x="40" y="157" width="280" height="593" as="geometry" />
        </mxCell>
        <mxCell id="OzgvakwpHb-Y98bhcLFI-9" value="&lt;font style=&quot;font-size: 15px;&quot;&gt;WAF&lt;/font&gt;" style="rounded=1;whiteSpace=wrap;html=1;strokeWidth=1;fillWeight=4;hachureGap=8;hachureAngle=45;sketch=1;fillStyle=hachure;fontStyle=0;fontSize=15;fillColor=#d5e8d4;strokeColor=#82b366;" vertex="1" parent="1">
          <mxGeometry x="55.55555555555556" y="190" width="62.222222222222214" height="490" as="geometry" />
        </mxCell>
        <mxCell id="OzgvakwpHb-Y98bhcLFI-11" value="&lt;span style=&quot;font-size: 15px;&quot;&gt;SLB&lt;/span&gt;" style="rounded=1;whiteSpace=wrap;html=1;strokeWidth=1;fillWeight=4;hachureGap=8;hachureAngle=45;sketch=1;fillStyle=hachure;fontStyle=0;fontSize=15;fillColor=#d5e8d4;strokeColor=#82b366;" vertex="1" parent="1">
          <mxGeometry x="145" y="210" width="54.44444444444444" height="160" as="geometry" />
        </mxCell>
        <mxCell id="OzgvakwpHb-Y98bhcLFI-26" style="edgeStyle=none;rounded=0;sketch=1;orthogonalLoop=1;jettySize=auto;html=1;exitX=1;exitY=0.25;exitDx=0;exitDy=0;entryX=0;entryY=0.5;entryDx=0;entryDy=0;shadow=1;fontStyle=0;fontSize=15;fillColor=#d5e8d4;strokeColor=#82b366;" edge="1" parent="1" source="OzgvakwpHb-Y98bhcLFI-9" target="OzgvakwpHb-Y98bhcLFI-11">
          <mxGeometry x="40" y="157" as="geometry">
            <Array as="points">
              <mxPoint x="117.77777777777777" y="290" />
            </Array>
          </mxGeometry>
        </mxCell>
        <mxCell id="OzgvakwpHb-Y98bhcLFI-19" style="rounded=0;sketch=1;orthogonalLoop=1;jettySize=auto;html=1;entryX=0;entryY=0.5;entryDx=0;entryDy=0;shadow=1;fontStyle=0;fontSize=15;fillColor=#d5e8d4;strokeColor=#82b366;" edge="1" parent="1" target="OzgvakwpHb-Y98bhcLFI-15">
          <mxGeometry x="40" y="157" as="geometry">
            <mxPoint x="195.55555555555554" y="600" as="sourcePoint" />
          </mxGeometry>
        </mxCell>
        <mxCell id="OzgvakwpHb-Y98bhcLFI-12" value="&lt;span style=&quot;font-size: 15px;&quot;&gt;SLB&lt;/span&gt;" style="rounded=1;whiteSpace=wrap;html=1;strokeWidth=1;fillWeight=4;hachureGap=8;hachureAngle=45;sketch=1;fillStyle=hachure;fontStyle=0;fontSize=15;fillColor=#d5e8d4;strokeColor=#82b366;" vertex="1" parent="1">
          <mxGeometry x="145" y="508" width="54.44444444444444" height="160" as="geometry" />
        </mxCell>
        <mxCell id="OzgvakwpHb-Y98bhcLFI-17" style="edgeStyle=orthogonalEdgeStyle;rounded=0;sketch=1;orthogonalLoop=1;jettySize=auto;html=1;exitX=1.05;exitY=0.812;exitDx=0;exitDy=0;exitPerimeter=0;shadow=1;fontStyle=0;fontSize=15;fillColor=#d5e8d4;strokeColor=#82b366;" edge="1" parent="1" source="OzgvakwpHb-Y98bhcLFI-9" target="OzgvakwpHb-Y98bhcLFI-12">
          <mxGeometry x="40" y="157" as="geometry" />
        </mxCell>
        <mxCell id="OzgvakwpHb-Y98bhcLFI-13" value="&lt;span style=&quot;font-size: 15px;&quot;&gt;API&lt;br style=&quot;font-size: 15px;&quot;&gt;SIX&lt;/span&gt;" style="rounded=1;whiteSpace=wrap;html=1;strokeWidth=1;fillWeight=4;hachureGap=8;hachureAngle=45;sketch=1;fillStyle=hachure;fontStyle=0;fontSize=15;fillColor=#d5e8d4;strokeColor=#82b366;" vertex="1" parent="1">
          <mxGeometry x="242.22222222222223" y="219" width="54.44444444444444" height="110" as="geometry" />
        </mxCell>
        <mxCell id="OzgvakwpHb-Y98bhcLFI-18" style="rounded=0;sketch=1;orthogonalLoop=1;jettySize=auto;html=1;entryX=-0.02;entryY=0.636;entryDx=0;entryDy=0;entryPerimeter=0;shadow=1;fontStyle=0;fontSize=15;fillColor=#d5e8d4;strokeColor=#82b366;" edge="1" parent="1" source="OzgvakwpHb-Y98bhcLFI-11" target="OzgvakwpHb-Y98bhcLFI-13">
          <mxGeometry x="40" y="157" as="geometry">
            <mxPoint x="250" y="330" as="sourcePoint" />
            <Array as="points">
              <mxPoint x="234.44444444444446" y="287" />
            </Array>
          </mxGeometry>
        </mxCell>
        <mxCell id="OzgvakwpHb-Y98bhcLFI-25" style="rounded=0;sketch=1;orthogonalLoop=1;jettySize=auto;html=1;exitX=1;exitY=0.75;exitDx=0;exitDy=0;entryX=-0.029;entryY=0.66;entryDx=0;entryDy=0;entryPerimeter=0;shadow=1;fontStyle=0;fontSize=15;fillColor=#d5e8d4;strokeColor=#82b366;" edge="1" parent="1" source="OzgvakwpHb-Y98bhcLFI-12" target="OzgvakwpHb-Y98bhcLFI-13">
          <mxGeometry x="40" y="157" as="geometry" />
        </mxCell>
        <mxCell id="OzgvakwpHb-Y98bhcLFI-22" style="rounded=0;sketch=1;orthogonalLoop=1;jettySize=auto;html=1;exitX=0;exitY=0.5;exitDx=0;exitDy=0;shadow=1;fontStyle=0;fontSize=15;strokeWidth=1;fillColor=#d5e8d4;strokeColor=#82b366;" edge="1" parent="1" source="OzgvakwpHb-Y98bhcLFI-14">
          <mxGeometry x="40" y="157" as="geometry">
            <mxPoint x="234.44444444444446" y="442" as="targetPoint" />
          </mxGeometry>
        </mxCell>
        <mxCell id="OzgvakwpHb-Y98bhcLFI-14" value="&lt;span style=&quot;font-size: 15px;&quot;&gt;API&lt;br style=&quot;font-size: 15px;&quot;&gt;SIX&lt;/span&gt;" style="rounded=1;whiteSpace=wrap;html=1;strokeWidth=1;fillWeight=4;hachureGap=8;hachureAngle=45;sketch=1;fillStyle=hachure;fontStyle=0;fontSize=15;fillColor=#d5e8d4;strokeColor=#82b366;" vertex="1" parent="1">
          <mxGeometry x="242.22222222222223" y="379" width="54.44444444444444" height="110" as="geometry" />
        </mxCell>
        <mxCell id="OzgvakwpHb-Y98bhcLFI-23" style="rounded=0;sketch=1;orthogonalLoop=1;jettySize=auto;html=1;exitX=1;exitY=0.75;exitDx=0;exitDy=0;entryX=0;entryY=0.5;entryDx=0;entryDy=0;shadow=1;fontStyle=0;fontSize=15;fillColor=#d5e8d4;strokeColor=#82b366;" edge="1" parent="1" source="OzgvakwpHb-Y98bhcLFI-11" target="OzgvakwpHb-Y98bhcLFI-14">
          <mxGeometry x="40" y="157" as="geometry" />
        </mxCell>
        <mxCell id="OzgvakwpHb-Y98bhcLFI-20" style="rounded=0;sketch=1;orthogonalLoop=1;jettySize=auto;html=1;exitX=1;exitY=0.25;exitDx=0;exitDy=0;entryX=0;entryY=0.5;entryDx=0;entryDy=0;shadow=1;fontStyle=0;fontSize=15;fillColor=#d5e8d4;strokeColor=#82b366;" edge="1" parent="1" source="OzgvakwpHb-Y98bhcLFI-12" target="OzgvakwpHb-Y98bhcLFI-14">
          <mxGeometry x="40" y="157" as="geometry" />
        </mxCell>
        <mxCell id="OzgvakwpHb-Y98bhcLFI-15" value="&lt;span style=&quot;font-size: 15px;&quot;&gt;API&lt;br style=&quot;font-size: 15px;&quot;&gt;SIX&lt;/span&gt;" style="rounded=1;whiteSpace=wrap;html=1;strokeWidth=1;fillWeight=4;hachureGap=8;hachureAngle=45;sketch=1;fillStyle=hachure;fontStyle=0;fontSize=15;fillColor=#d5e8d4;strokeColor=#82b366;" vertex="1" parent="1">
          <mxGeometry x="242.22222222222223" y="545" width="54.44444444444444" height="110" as="geometry" />
        </mxCell>
        <mxCell id="OzgvakwpHb-Y98bhcLFI-24" style="rounded=0;sketch=1;orthogonalLoop=1;jettySize=auto;html=1;exitX=1;exitY=0.5;exitDx=0;exitDy=0;entryX=0;entryY=0.5;entryDx=0;entryDy=0;shadow=1;fontStyle=0;fontSize=15;fillColor=#d5e8d4;strokeColor=#82b366;" edge="1" parent="1" source="OzgvakwpHb-Y98bhcLFI-11" target="OzgvakwpHb-Y98bhcLFI-15">
          <mxGeometry x="40" y="157" as="geometry" />
        </mxCell>
        <mxCell id="OzgvakwpHb-Y98bhcLFI-30" value="运维区" style="text;html=1;strokeColor=none;fillColor=none;align=center;verticalAlign=middle;whiteSpace=wrap;rounded=0;shadow=1;sketch=1;fontStyle=0;fontSize=15;" vertex="1" parent="1">
          <mxGeometry x="152.77777777777777" y="720" width="54.44444444444444" height="20" as="geometry" />
        </mxCell>
        <mxCell id="OzgvakwpHb-Y98bhcLFI-59" value="业务服务" style="text;html=1;fillColor=none;align=center;verticalAlign=middle;whiteSpace=wrap;rounded=0;shadow=0;sketch=0;fontSize=15;strokeWidth=1;" vertex="1" parent="1">
          <mxGeometry x="799" y="750" width="84" height="20" as="geometry" />
        </mxCell>
        <mxCell id="OzgvakwpHb-Y98bhcLFI-67" value="Redis" style="outlineConnect=0;strokeColor=#56517e;fillColor=#d0cee2;dashed=0;verticalLabelPosition=bottom;verticalAlign=top;align=center;html=1;fontSize=12;fontStyle=0;aspect=fixed;shape=mxgraph.aws4.resourceIcon;resIcon=mxgraph.aws4.instances_2;shadow=0;sketch=1;" vertex="1" parent="1">
          <mxGeometry x="976" y="825" width="80" height="80" as="geometry" />
        </mxCell>
        <mxCell id="OzgvakwpHb-Y98bhcLFI-73" value="" style="shape=cylinder3;whiteSpace=wrap;html=1;boundedLbl=1;backgroundOutline=1;size=15;shadow=0;sketch=1;fontSize=15;strokeColor=#ae4132;strokeWidth=1;fillColor=#fad9d5;" vertex="1" parent="1">
          <mxGeometry x="618.71" y="823" width="65" height="100" as="geometry" />
        </mxCell>
        <mxCell id="OzgvakwpHb-Y98bhcLFI-72" value="&lt;font style=&quot;font-size: 12px&quot;&gt;MySQL&lt;/font&gt;" style="shape=cylinder3;whiteSpace=wrap;html=1;boundedLbl=1;backgroundOutline=1;size=15;shadow=0;sketch=1;fontSize=15;strokeColor=#ae4132;strokeWidth=1;fillColor=#fad9d5;" vertex="1" parent="1">
          <mxGeometry x="612" y="813" width="65" height="100" as="geometry" />
        </mxCell>
        <mxCell id="OzgvakwpHb-Y98bhcLFI-76" value="&lt;font color=&quot;#030914&quot; style=&quot;font-size: 15px&quot;&gt;配置中心&lt;br&gt;APOLLO&lt;/font&gt;" style="ellipse;whiteSpace=wrap;html=1;strokeWidth=2;fillWeight=2;hachureGap=8;fillStyle=dots;sketch=1;shadow=0;fontSize=15;fillColor=#cdeb8b;strokeColor=#36393d;" vertex="1" parent="1">
          <mxGeometry x="995" y="188" width="173" height="82" as="geometry" />
        </mxCell>
      </root>
    </mxGraphModel>
  </diagram>
</mxfile>
